<?xml version="1.0" encoding="UTF-8"?><svg id="Layer_1" xmlns="http://www.w3.org/2000/svg" viewBox="0 0 2000 1000"><g><path d="m723.73,577.73c-15.03,0-28.16-3.29-39.39-9.88-11.24-6.58-20.04-15.7-26.41-27.37-6.37-11.66-9.55-25.15-9.55-40.47s3.18-28.8,9.55-40.47c6.37-11.66,15.17-20.79,26.41-27.37,11.23-6.58,24.37-9.88,39.39-9.88s27.98,3.29,39.29,9.88c11.3,6.58,20.1,15.71,26.41,27.37,6.3,11.67,9.44,25.16,9.44,40.47s-3.15,28.8-9.44,40.47c-6.3,11.67-15.1,20.79-26.41,27.37-11.31,6.59-24.4,9.88-39.29,9.88Zm0-24.69c14.31,0,25.73-4.72,34.24-14.17,8.51-9.45,12.78-22.4,12.78-38.86s-4.26-29.41-12.78-38.86c-8.52-9.45-19.93-14.17-34.24-14.17s-25.76,4.72-34.35,14.17c-8.59,9.45-12.88,22.4-12.88,38.86s4.29,29.41,12.88,38.86c8.59,9.45,20.03,14.17,34.35,14.17Z"/><path d="m817.12,622.38v-153.72h24.47l3,15.24c3.43-4.72,7.98-8.87,13.63-12.45,5.65-3.57,12.99-5.37,22.01-5.37,10.02,0,18.96,2.44,26.84,7.3,7.87,4.87,14.1,11.52,18.68,19.97,4.58,8.45,6.87,18.03,6.87,28.77s-2.29,20.29-6.87,28.66c-4.58,8.37-10.81,14.96-18.68,19.75-7.87,4.8-16.82,7.19-26.84,7.19-8.02,0-15.03-1.5-21.04-4.51s-10.88-7.23-14.6-12.67v61.83h-27.48Zm57.32-68.7c8.73,0,15.96-2.93,21.68-8.8,5.73-5.87,8.59-13.45,8.59-22.76s-2.86-16.96-8.59-22.97c-5.73-6.01-12.95-9.02-21.68-9.02s-16.14,2.97-21.79,8.91c-5.66,5.94-8.48,13.56-8.48,22.86s2.82,16.93,8.48,22.87c5.65,5.94,12.91,8.91,21.79,8.91Z"/><path d="m1003.47,577.73c-10.73,0-20.25-2.29-28.55-6.87-8.3-4.58-14.82-11.02-19.54-19.32-4.72-8.3-7.08-17.89-7.08-28.76s2.32-20.83,6.98-29.41c4.65-8.59,11.09-15.28,19.32-20.07,8.23-4.79,17.93-7.19,29.09-7.19,10.44,0,19.67,2.29,27.69,6.87,8.01,4.58,14.28,10.84,18.78,18.79,4.51,7.94,6.76,16.78,6.76,26.52,0,1.57-.04,3.22-.11,4.94-.08,1.72-.18,3.51-.32,5.37h-80.94c.57,8.3,3.47,14.81,8.69,19.53,5.22,4.73,11.56,7.09,19,7.09,5.58,0,10.27-1.25,14.06-3.76,3.79-2.5,6.62-5.76,8.48-9.77h27.91c-2,6.73-5.33,12.85-9.98,18.35-4.65,5.51-10.38,9.84-17.17,12.99-6.8,3.15-14.49,4.73-23.08,4.73Zm.22-89.31c-6.73,0-12.67,1.9-17.82,5.69-5.15,3.79-8.45,9.55-9.87,17.28h53.02c-.43-7.01-3-12.59-7.73-16.75-4.73-4.15-10.59-6.23-17.6-6.23Z"/><path d="m1074.74,575.15v-106.48h24.47l2.58,19.97c3.86-6.87,9.12-12.34,15.78-16.42,6.66-4.08,14.49-6.12,23.51-6.12v28.98h-7.73c-6.01,0-11.38.93-16.1,2.79-4.72,1.86-8.41,5.08-11.06,9.66-2.65,4.58-3.97,10.95-3.97,19.11v48.52h-27.48Z"/><path d="m1191.1,577.73c-9.16,0-16.68-1.47-22.54-4.4-5.87-2.93-10.23-6.83-13.1-11.7-2.86-4.86-4.3-10.23-4.3-16.1,0-9.88,3.86-17.89,11.59-24.05,7.73-6.15,19.32-9.23,34.78-9.23h27.05v-2.58c0-7.3-2.08-12.67-6.23-16.1-4.16-3.43-9.31-5.15-15.46-5.15-5.58,0-10.45,1.33-14.6,3.97-4.16,2.65-6.73,6.55-7.73,11.7h-26.83c.71-7.73,3.32-14.46,7.83-20.18,4.51-5.72,10.34-10.12,17.5-13.2,7.16-3.08,15.17-4.62,24.05-4.62,15.17,0,27.12,3.79,35.85,11.38,8.73,7.59,13.1,18.32,13.1,32.2v65.48h-23.4l-2.57-17.17c-3.15,5.73-7.55,10.45-13.21,14.17-5.66,3.72-12.92,5.58-21.79,5.58Zm6.23-21.47c7.87,0,13.99-2.58,18.35-7.73,4.37-5.15,7.12-11.52,8.27-19.11h-23.4c-7.3,0-12.53,1.33-15.67,3.97-3.15,2.65-4.73,5.91-4.73,9.77,0,4.15,1.57,7.37,4.73,9.66,3.14,2.29,7.3,3.43,12.45,3.43Z"/><path d="m1318.84,575.15c-11.16,0-20.11-2.72-26.84-8.16-6.73-5.44-10.09-15.1-10.09-28.98v-46.37h-18.25v-22.97h18.25l3.22-28.55h24.26v28.55h28.77v22.97h-28.77v46.59c0,5.15,1.11,8.69,3.33,10.63,2.22,1.93,6.04,2.9,11.48,2.9h13.31v23.4h-18.68Z"/><path d="m1405.36,577.73c-10.73,0-20.25-2.29-28.55-6.87-8.3-4.58-14.82-11.02-19.54-19.32-4.72-8.3-7.08-17.89-7.08-28.76s2.32-20.83,6.98-29.41c4.65-8.59,11.09-15.28,19.32-20.07,8.23-4.79,17.93-7.19,29.09-7.19,10.44,0,19.67,2.29,27.69,6.87,8.01,4.58,14.28,10.84,18.78,18.79s6.76,16.78,6.76,26.52c0,1.57-.04,3.22-.11,4.94-.08,1.72-.18,3.51-.32,5.37h-80.94c.57,8.3,3.47,14.81,8.69,19.53,5.22,4.73,11.56,7.09,19,7.09,5.58,0,10.27-1.25,14.06-3.76,3.79-2.5,6.62-5.76,8.48-9.77h27.91c-2,6.73-5.33,12.85-9.98,18.35-4.65,5.51-10.38,9.84-17.17,12.99-6.8,3.15-14.49,4.73-23.08,4.73Zm.22-89.31c-6.73,0-12.67,1.9-17.82,5.69-5.15,3.79-8.45,9.55-9.87,17.28h53.02c-.43-7.01-3-12.59-7.73-16.75-4.73-4.15-10.59-6.23-17.6-6.23Z"/><path d="m1476.63,575.15v-154.57h27.48v154.57h-27.48Z"/><path d="m1540.18,622.38l24.69-54.32h-6.44l-41.44-99.4h29.84l29.84,74.93,31.13-74.93h29.2l-67.62,153.72h-29.2Z"/></g><g><polygon points="511.27 601.83 442.82 601.83 442.82 533.38 511.27 601.83" fill="#024fac"/><polygon points="442.82 396.47 511.27 396.47 511.27 464.92 442.82 396.47" fill="#024fac"/><polygon points="511.27 396.47 511.27 464.92 511.27 533.38 511.27 601.83 579.73 533.38 579.73 464.92 511.27 396.47" fill="#3185ff"/><polygon points="374.36 464.92 374.36 533.38 442.82 601.83 442.82 533.38 442.82 464.92 442.82 396.47 374.36 464.92" fill="#3185ff"/></g></svg>